PublicSans-Thin.ufo
<glyph name="numbersign" format="2">
  <advance width="1180"/>
  <unicode hex="0023"/>
  <outline>
    <contour>
      <point x="552" y="1438" type="line"/>
      <point x="478" y="1448" type="line"/>
      <point x="256" y="10" type="line"/>
      <point x="330" y="-2" type="line"/>
    </contour>
    <contour>
      <point x="948" y="1438" type="line"/>
      <point x="874" y="1448" type="line"/>
      <point x="652" y="10" type="line"/>
      <point x="726" y="-2" type="line"/>
    </contour>
    <contour>
      <point x="1026" y="562" type="line"/>
      <point x="90" y="562" type="line"/>
      <point x="90" y="488" type="line"/>
      <point x="1026" y="488" type="line"/>
    </contour>
    <contour>
      <point x="1090" y="972" type="line"/>
      <point x="154" y="972" type="line"/>
      <point x="154" y="898" type="line"/>
      <point x="1090" y="898" type="line"/>
    </contour>
  </outline>
</glyph>
<glyph name="quotesingle" format="2">
  <advance width="470"/>
  <unicode hex="0027"/>
  <outline>
    <contour>
      <point x="310" y="1446" type="line"/>
      <point x="160" y="1446" type="line"/>
      <point x="200" y="1072" type="line"/>
      <point x="266" y="1072" type="line"/>
    </contour>
  </outline>
</glyph>
<glyph name="hyphen" format="2">
  <advance width="724"/>
  <unicode hex="002D"/>
  <outline>
    <contour>
      <point x="597" y="558" type="line"/>
      <point x="127" y="556" type="line"/>
      <point x="127" y="478" type="line"/>
      <point x="597" y="480" type="line"/>
    </contour>
  </outline>
</glyph>
<glyph name="period" format="2">
  <advance width="361"/>
  <unicode hex="002E"/>
  <outline>
    <contour>
      <point x="120" y="0" type="line"/>
      <point x="241" y="0" type="line"/>
      <point x="241" y="154" type="line"/>
      <point x="120" y="154" type="line"/>
    </contour>
  </outline>
</glyph>
<glyph name="slash" format="2">
  <advance width="640"/>
  <unicode hex="002F"/>
  <guideline x="85" y="644" angle="0"/>
  <outline>
    <contour>
      <point x="30" y="-118" type="line"/>
      <point x="114" y="-118" type="line"/>
      <point x="610" y="1446" type="line"/>
      <point x="526" y="1446" type="line"/>
    </contour>
  </outline>
</glyph>
<glyph name="greater" format="2">
  <advance width="1026"/>
  <unicode hex="003E"/>
  <outline>
    <contour>
      <point x="132" y="438" type="line"/>
      <point x="132" y="348" type="line"/>
      <point x="896" y="650" type="line"/>
      <point x="896" y="744" type="line"/>
      <point x="130" y="1054" type="line"/>
      <point x="130" y="956" type="line"/>
      <point x="778" y="698" type="line"/>
    </contour>
  </outline>
</glyph>
<glyph name="A" format="2">
  <advance width="1388"/>
  <unicode hex="0041"/>
  <guideline x="21" y="110" angle="69.4967"/>
  <guideline x="395" y="110" angle="110.0797"/>
  <anchor x="694" y="0" name="bottom"/>
  <anchor x="1274" y="24" name="ogonek"/>
  <anchor x="694" y="1446" name="top"/>
  <outline>
    <contour>
      <point x="110" y="0" type="line"/>
      <point x="194" y="0" type="line"/>
      <point x="364" y="456" type="line"/>
      <point x="1026" y="456" type="line"/>
      <point x="1192" y="0" type="line"/>
      <point x="1278" y="0" type="line"/>
      <point x="750" y="1446" type="line"/>
      <point x="640" y="1446" type="line"/>
    </contour>
    <contour>
      <point x="392" y="542" type="line"/>
      <point x="696" y="1362" type="line"/>
      <point x="996" y="542" type="line"/>
    </contour>
  </outline>
</glyph>
<glyph name="E" format="2">
  <advance width="1213"/>
  <unicode hex="0045"/>
  <anchor x="694" y="0" name="bottom"/>
  <anchor x="1068" y="20" name="ogonek"/>
  <anchor x="640" y="1446" name="top"/>
  <outline>
    <contour>
      <point x="220" y="0" type="line"/>
      <point x="1078" y="0" type="line"/>
      <point x="1078" y="82" type="line"/>
      <point x="298" y="84" type="line"/>
      <point x="298" y="690" type="line"/>
      <point x="998" y="690" type="line"/>
      <point x="998" y="772" type="line"/>
      <point x="298" y="772" type="line"/>
      <point x="298" y="1366" type="line"/>
      <point x="1050" y="1366" type="line"/>
      <point x="1050" y="1446" type="line"/>
      <point x="220" y="1446" type="line"/>
    </contour>
  </outline>
</glyph>
<glyph name="K" format="2">
  <advance width="1295"/>
  <unicode hex="004B"/>
  <guideline x="607" y="836" angle="47.5607"/>
  <guideline x="1135" y="0" angle="302.5822"/>
  <anchor x="664" y="0" name="bottom"/>
  <anchor x="698" y="1446" name="top"/>
  <outline>
    <contour>
      <point x="1207" y="0" type="line"/>
      <point x="649" y="869" type="line"/>
      <point x="1178" y="1446" type="line"/>
      <point x="1070" y="1446" type="line"/>
      <point x="302" y="612" type="line"/>
      <point x="302" y="1446" type="line"/>
      <point x="220" y="1446" type="line"/>
      <point x="220" y="0" type="line"/>
      <point x="302" y="0" type="line"/>
      <point x="302" y="497" type="line"/>
      <point x="590" y="812" type="line"/>
      <point x="1108" y="0" type="line"/>
    </contour>
  </outline>
</glyph>
<glyph name="T" format="2">
  <advance width="1141"/>
  <unicode hex="0054"/>
  <anchor x="593" y="4" name="bottom"/>
  <anchor x="593" y="1446" name="top"/>
  <outline>
    <contour>
      <point x="55" y="1366" type="line"/>
      <point x="551" y="1366" type="line"/>
      <point x="551" y="0" type="line"/>
      <point x="630" y="0" type="line"/>
      <point x="630" y="1366" type="line"/>
      <point x="1086" y="1366" type="line"/>
      <point x="1086" y="1446" type="line"/>
      <point x="55" y="1446" type="line"/>
    </contour>
  </outline>
</glyph>
<glyph name="U" format="2">
  <advance width="1354"/>
  <unicode hex="0055"/>
  <anchor x="696" y="4" name="bottom"/>
  <anchor x="1148" y="1212" name="horn"/>
  <anchor x="838" y="18" name="ogonek"/>
  <anchor x="702" y="1446" name="top"/>
  <outline>
    <contour>
      <point x="1178" y="448" type="curve" smooth="yes"/>
      <point x="1178" y="1446" type="line"/>
      <point x="1100" y="1446" type="line"/>
      <point x="1100" y="444" type="line" smooth="yes"/>
      <point x="1100" y="188"/>
      <point x="966" y="56"/>
      <point x="698" y="56" type="curve" smooth="yes"/>
      <point x="432" y="56"/>
      <point x="306" y="192"/>
      <point x="306" y="444" type="curve" smooth="yes"/>
      <point x="306" y="1446" type="line"/>
      <point x="220" y="1446" type="line"/>
      <point x="220" y="478" type="line" smooth="yes"/>
      <point x="220" y="138"/>
      <point x="370" y="-20"/>
      <point x="698" y="-20" type="curve" smooth="yes"/>
      <point x="1020" y="-20"/>
      <point x="1178" y="134"/>
    </contour>
  </outline>
</glyph>
<glyph name="V" format="2">
  <advance width="1263"/>
  <unicode hex="0056"/>
  <outline>
    <contour>
      <point x="1208" y="1446" type="line"/>
      <point x="1124" y="1446" type="line"/>
      <point x="626" y="82" type="line"/>
      <point x="141" y="1446" type="line"/>
      <point x="55" y="1446" type="line"/>
      <point x="567" y="0" type="line"/>
      <point x="683" y="0" type="line"/>
    </contour>
  </outline>
</glyph>
<glyph name="backslash" format="2">
  <advance width="640"/>
  <unicode hex="005C"/>
  <guideline x="6" y="609" angle="0"/>
  <outline>
    <contour>
      <point x="524" y="-118" type="line"/>
      <point x="610" y="-118" type="line"/>
      <point x="114" y="1446" type="line"/>
      <point x="30" y="1446" type="line"/>
    </contour>
  </outline>
</glyph>
<glyph name="underscore" format="2">
  <advance width="964"/>
  <unicode hex="005F"/>
  <outline>
    <contour>
      <point x="834" y="-118" type="line"/>
      <point x="130" y="-120" type="line"/>
      <point x="130" y="-198" type="line"/>
      <point x="834" y="-196" type="line"/>
    </contour>
  </outline>
</glyph>
<glyph name="c" format="2">
  <advance width="1079"/>
  <unicode hex="0063"/>
  <anchor x="564" y="0" name="bottom"/>
  <anchor x="562" y="1034" name="top"/>
  <outline>
    <contour>
      <point x="562" y="1054" type="curve" smooth="yes"/>
      <point x="255" y="1054"/>
      <point x="110" y="837"/>
      <point x="110" y="512" type="curve" smooth="yes"/>
      <point x="110" y="150"/>
      <point x="291" y="-20"/>
      <point x="562" y="-20" type="curve" smooth="yes"/>
      <point x="787" y="-20"/>
      <point x="929" y="98"/>
      <point x="958" y="276" type="curve"/>
      <point x="873" y="276" type="line"/>
      <point x="849" y="138"/>
      <point x="722" y="54"/>
      <point x="570" y="54" type="curve" smooth="yes"/>
      <point x="313" y="54"/>
      <point x="193" y="239"/>
      <point x="193" y="516" type="curve" smooth="yes"/>
      <point x="193" y="830"/>
      <point x="345" y="978"/>
      <point x="572" y="978" type="curve" smooth="yes"/>
      <point x="734" y="978"/>
      <point x="849" y="890"/>
      <point x="873" y="754" type="curve"/>
      <point x="958" y="758" type="line"/>
      <point x="917" y="959"/>
      <point x="764" y="1054"/>
    </contour>
  </outline>
</glyph>
<glyph name="q" format="2">
  <advance width="1168"/>
  <unicode hex="0071"/>
  <outline>
    <contour>
      <point x="988" y="-322" type="line"/>
      <point x="988" y="1034" type="line"/>
      <point x="912" y="1034" type="line"/>
      <point x="908" y="822" type="line"/>
      <point x="878" y="896"/>
      <point x="788" y="1054"/>
      <point x="550" y="1054" type="curve" smooth="yes"/>
      <point x="251" y="1054"/>
      <point x="110" y="847"/>
      <point x="110" y="536" type="curve" smooth="yes"/>
      <point x="110" y="158"/>
      <point x="286" y="-20"/>
      <point x="550" y="-20" type="curve" smooth="yes"/>
      <point x="788" y="-20"/>
      <point x="877" y="140"/>
      <point x="908" y="219" type="curve"/>
      <point x="908" y="-322" type="line"/>
    </contour>
    <contour>
      <point x="550" y="54" type="curve" smooth="yes"/>
      <point x="308" y="54"/>
      <point x="194" y="244"/>
      <point x="194" y="528" type="curve" smooth="yes"/>
      <point x="194" y="834"/>
      <point x="336" y="978"/>
      <point x="550" y="978" type="curve" smooth="yes"/>
      <point x="784" y="978"/>
      <point x="911" y="802"/>
      <point x="911" y="528" type="curve" smooth="yes"/>
      <point x="911" y="254"/>
      <point x="784" y="54"/>
    </contour>
  </outline>
</glyph>
<glyph name="x" format="2">
  <advance width="1082"/>
  <unicode hex="0078"/>
  <guideline x="61" y="0" angle="233.337"/>
  <guideline x="380" y="0" angle="126.663"/>
  <outline>
    <contour>
      <point x="992" y="0" type="line"/>
      <point x="592" y="536" type="line"/>
      <point x="962" y="1034" type="line"/>
      <point x="864" y="1034" type="line"/>
      <point x="540" y="598" type="line"/>
      <point x="218" y="1034" type="line"/>
      <point x="120" y="1034" type="line"/>
      <point x="490" y="536" type="line"/>
      <point x="90" y="0" type="line"/>
      <point x="189" y="0" type="line"/>
      <point x="540" y="474" type="line"/>
      <point x="895" y="0" type="line"/>
    </contour>
  </outline>
</glyph>
<glyph name="z" format="2">
  <advance width="930"/>
  <unicode hex="007A"/>
  <guideline x="842" y="966" angle="233.7741"/>
  <anchor x="479" y="0" name="bottom"/>
  <anchor x="479" y="1034" name="top"/>
  <outline>
    <contour>
      <point x="90" y="0" type="line"/>
      <point x="840" y="0" type="line"/>
      <point x="840" y="68" type="line"/>
      <point x="178" y="68" type="line"/>
      <point x="833" y="966" type="line"/>
      <point x="833" y="1034" type="line"/>
      <point x="114" y="1034" type="line"/>
      <point x="114" y="966" type="line"/>
      <point x="747" y="966" type="line"/>
      <point x="90" y="68" type="line"/>
    </contour>
  </outline>
</glyph>
<glyph name="exclamdown" format="2">
  <advance width="440"/>
  <unicode hex="00A1"/>
  <outline>
    <contour>
      <point x="280" y="880" type="line"/>
      <point x="280" y="1034" type="line"/>
      <point x="160" y="1034" type="line"/>
      <point x="160" y="880" type="line"/>
    </contour>
    <contour>
      <point x="272" y="-322" type="line"/>
      <point x="252" y="744" type="line"/>
      <point x="188" y="744" type="line"/>
      <point x="170" y="-322" type="line"/>
    </contour>
  </outline>
</glyph>
<glyph name="plusminus" format="2">
  <advance width="1042"/>
  <unicode hex="00B1"/>
  <outline>
    <contour>
      <point x="912" y="238" type="line"/>
      <point x="130" y="236" type="line"/>
      <point x="130" y="162" type="line"/>
      <point x="912" y="164" type="line"/>
    </contour>
    <contour>
      <point x="912" y="900" type="line"/>
      <point x="130" y="898" type="line"/>
      <point x="130" y="824" type="line"/>
      <point x="912" y="826" type="line"/>
    </contour>
    <contour>
      <point x="558" y="472" type="line"/>
      <point x="558" y="1254" type="line"/>
      <point x="484" y="1254" type="line"/>
      <point x="486" y="472" type="line"/>
    </contour>
  </outline>
</glyph>
<glyph name="periodcentered" format="2">
  <advance width="400"/>
  <unicode hex="00B7"/>
  <outline>
    <contour>
      <point x="280" y="806" type="line"/>
      <point x="120" y="806" type="line"/>
      <point x="120" y="652" type="line"/>
      <point x="280" y="652" type="line"/>
    </contour>
  </outline>
</glyph>
<glyph name="guillemetright" format="2">
  <advance width="893"/>
  <unicode hex="00BB"/>
  <outline>
    <contour>
      <point x="365" y="502" type="line"/>
      <point x="129" y="152" type="line"/>
      <point x="182" y="152" type="line"/>
      <point x="467" y="502" type="line"/>
      <point x="179" y="868" type="line"/>
      <point x="125" y="868" type="line"/>
    </contour>
    <contour>
      <point x="691" y="502" type="line"/>
      <point x="455" y="152" type="line"/>
      <point x="507" y="152" type="line"/>
      <point x="793" y="502" type="line"/>
      <point x="505" y="868" type="line"/>
      <point x="451" y="868" type="line"/>
    </contour>
  </outline>
</glyph>
<glyph name="AE" format="2">
  <advance width="1817"/>
  <unicode hex="00C6"/>
  <anchor x="1234" y="1446" name="top"/>
  <outline>
    <contour>
      <point x="1682" y="78" type="line"/>
      <point x="960" y="78" type="line"/>
      <point x="960" y="692" type="line"/>
      <point x="1602" y="692" type="line"/>
      <point x="1602" y="770" type="line"/>
      <point x="960" y="770" type="line"/>
      <point x="960" y="1368" type="line"/>
      <point x="1654" y="1368" type="line"/>
      <point x="1654" y="1446" type="line"/>
      <point x="826" y="1446" type="line"/>
      <point x="0" y="0" type="line"/>
      <point x="84" y="0" type="line"/>
      <point x="350" y="464" type="line"/>
      <point x="872" y="464" type="line"/>
      <point x="872" y="0" type="line"/>
      <point x="1682" y="0" type="line"/>
    </contour>
    <contour>
      <point x="872" y="542" type="line"/>
      <point x="388" y="542" type="line"/>
      <point x="872" y="1370" type="line"/>
    </contour>
  </outline>
</glyph>
<glyph name="multiply" format="2">
  <advance width="1006"/>
  <unicode hex="00D7"/>
  <outline>
    <contour>
      <point x="876" y="408" type="line"/>
      <point x="184" y="1096" type="line"/>
      <point x="130" y="1044" type="line"/>
      <point x="822" y="354" type="line"/>
    </contour>
    <contour>
      <point x="186" y="354" type="line"/>
      <point x="874" y="1048" type="line"/>
      <point x="820" y="1100" type="line"/>
      <point x="132" y="408" type="line"/>
    </contour>
  </outline>
</glyph>
<glyph name="ae" format="2">
  <advance width="1829"/>
  <unicode hex="00E6"/>
  <anchor x="548" y="0" name="bottom"/>
  <anchor x="907" y="28" name="ogonek"/>
  <anchor x="883" y="1034" name="top"/>
  <outline>
    <contour>
      <point x="453" y="-20" type="curve" smooth="yes"/>
      <point x="664" y="-20"/>
      <point x="890" y="115"/>
      <point x="890" y="316" type="curve"/>
      <point x="919" y="716" type="line"/>
      <point x="919" y="926"/>
      <point x="769" y="1054"/>
      <point x="550" y="1054" type="curve" smooth="yes"/>
      <point x="309" y="1054"/>
      <point x="183" y="904"/>
      <point x="174" y="758" type="curve"/>
      <point x="258" y="758" type="line"/>
      <point x="279" y="900"/>
      <point x="395" y="978"/>
      <point x="546" y="978" type="curve" smooth="yes"/>
      <point x="721" y="978"/>
      <point x="842" y="880"/>
      <point x="842" y="714" type="curve" smooth="yes"/>
      <point x="842" y="614" type="line"/>
      <point x="603" y="606" type="line" smooth="yes"/>
      <point x="260" y="594"/>
      <point x="121" y="496"/>
      <point x="121" y="264" type="curve" smooth="yes"/>
      <point x="121" y="88"/>
      <point x="249" y="-20"/>
    </contour>
    <contour>
      <point x="466" y="54" type="curve" smooth="yes"/>
      <point x="307" y="54"/>
      <point x="203" y="134"/>
      <point x="203" y="270" type="curve" smooth="yes"/>
      <point x="203" y="450"/>
      <point x="311" y="526"/>
      <point x="641" y="532" type="curve" smooth="yes"/>
      <point x="842" y="536" type="line"/>
      <point x="842" y="383" type="line" smooth="yes"/>
      <point x="842" y="243"/>
      <point x="696" y="54"/>
    </contour>
    <component base="e" xOffset="715"/>
  </outline>
</glyph>
<glyph name="eth" format="2">
  <advance width="1150"/>
  <unicode hex="00F0"/>
  <outline>
    <contour>
      <point x="580" y="-20" type="curve" smooth="yes"/>
      <point x="864" y="-20"/>
      <point x="1033" y="212"/>
      <point x="1039" y="514" type="curve" smooth="yes"/>
      <point x="1049" y="985"/>
      <point x="991" y="1267"/>
      <point x="625" y="1480" type="curve"/>
      <point x="535" y="1441" type="line"/>
      <point x="730" y="1343"/>
      <point x="930" y="1180"/>
      <point x="950" y="844" type="curve"/>
      <point x="904" y="955"/>
      <point x="806" y="1054"/>
      <point x="580" y="1054" type="curve" smooth="yes"/>
      <point x="294" y="1054"/>
      <point x="110" y="830"/>
      <point x="110" y="514" type="curve" smooth="yes"/>
      <point x="110" y="214"/>
      <point x="292" y="-20"/>
    </contour>
    <contour>
      <point x="580" y="54" type="curve" smooth="yes"/>
      <point x="338" y="54"/>
      <point x="192" y="268"/>
      <point x="192" y="514" type="curve" smooth="yes"/>
      <point x="192" y="792"/>
      <point x="340" y="978"/>
      <point x="580" y="978" type="curve" smooth="yes"/>
      <point x="831" y="978"/>
      <point x="957" y="818"/>
      <point x="957" y="514" type="curve" smooth="yes"/>
      <point x="957" y="266"/>
      <point x="820" y="54"/>
    </contour>
    <contour>
      <point x="473" y="1129" type="line"/>
      <point x="1015" y="1352" type="line"/>
      <point x="1015" y="1440" type="line"/>
      <point x="473" y="1218" type="line"/>
    </contour>
  </outline>
</glyph>
<glyph name="divide" format="2">
  <advance width="1042"/>
  <unicode hex="00F7"/>
  <outline>
    <contour>
      <point x="602" y="494" type="line"/>
      <point x="442" y="494" type="line"/>
      <point x="442" y="340" type="line"/>
      <point x="602" y="340" type="line"/>
    </contour>
    <contour>
      <point x="912" y="764" type="line"/>
      <point x="130" y="762" type="line"/>
      <point x="130" y="688" type="line"/>
      <point x="912" y="690" type="line"/>
    </contour>
    <contour>
      <point x="602" y="1114" type="line"/>
      <point x="442" y="1114" type="line"/>
      <point x="442" y="960" type="line"/>
      <point x="602" y="960" type="line"/>
    </contour>
  </outline>
</glyph>
<glyph name="oslash" format="2">
  <advance width="1120"/>
  <unicode hex="00F8"/>
  <anchor x="562" y="1034" name="top"/>
  <anchor x="550" y="0" name="bottom"/>
  <anchor x="838" y="856" name="horn"/>
  <anchor x="671" y="20" name="ogonek"/>
  <outline>
    <contour>
      <point x="1090" y="982" type="line"/>
      <point x="1036" y="1038" type="line"/>
      <point x="30" y="48" type="line"/>
      <point x="84" y="-8" type="line"/>
    </contour>
    <component base="o" xOffset="-10"/>
  </outline>
</glyph>
<glyph name="gcommaaccent" format="2">
  <advance width="1233"/>
  <unicode hex="0123"/>
  <anchor x="558" y="1072" name="_top"/>
  <anchor x="592" y="1034" name="top"/>
  <outline>
    <contour>
      <point x="496" y="1232" type="line"/>
      <point x="608" y="1232" type="line"/>
      <point x="608" y="1394" type="line"/>
      <point x="562" y="1394" type="line"/>
      <point x="626" y="1532" type="line"/>
      <point x="564" y="1532" type="line"/>
      <point x="496" y="1402" type="line"/>
    </contour>
    <component base="g"/>
  </outline>
</glyph>
<glyph name="idotless" format="2">
  <advance width="474"/>
  <unicode hex="0131"/>
  <anchor x="261" y="26" name="ogonek"/>
  <anchor x="236" y="1034" name="top"/>
  <outline>
    <contour>
      <point x="276" y="1034" type="line"/>
      <point x="198" y="1034" type="line"/>
      <point x="198" y="0" type="line"/>
      <point x="276" y="0" type="line"/>
    </contour>
  </outline>
</glyph>
<glyph name="Lslash" format="2">
  <advance width="1144"/>
  <unicode hex="0141"/>
  <anchor x="610" y="0" name="bottom"/>
  <anchor x="810" y="1458" name="caron"/>
  <anchor x="256" y="1446" name="top"/>
  <outline>
    <contour>
      <point x="634" y="856" type="line"/>
      <point x="60" y="710" type="line"/>
      <point x="60" y="634" type="line"/>
      <point x="634" y="784" type="line"/>
    </contour>
    <component base="L" xOffset="-10"/>
  </outline>
</glyph>
<glyph name="OE" format="2">
  <advance width="2191"/>
  <unicode hex="0152"/>
  <outline>
    <contour>
      <point x="2056" y="78" type="line"/>
      <point x="1294" y="78" type="line"/>
      <point x="1294" y="692" type="line"/>
      <point x="1868" y="692" type="line"/>
      <point x="1868" y="770" type="line"/>
      <point x="1294" y="770" type="line"/>
      <point x="1294" y="1368" type="line"/>
      <point x="2026" y="1368" type="line"/>
      <point x="2026" y="1446" type="line"/>
      <point x="1204" y="1446" type="line"/>
      <point x="1204" y="1170" type="line"/>
      <point x="1108" y="1366"/>
      <point x="938" y="1466"/>
      <point x="710" y="1466" type="curve" smooth="yes"/>
      <point x="344" y="1466"/>
      <point x="120" y="1204"/>
      <point x="120" y="716" type="curve" smooth="yes"/>
      <point x="120" y="236"/>
      <point x="340" y="-20"/>
      <point x="708" y="-20" type="curve" smooth="yes"/>
      <point x="936" y="-20"/>
      <point x="1108" y="80"/>
      <point x="1204" y="274" type="curve"/>
      <point x="1204" y="0" type="line"/>
      <point x="2056" y="0" type="line"/>
    </contour>
    <contour>
      <point x="712" y="62" type="curve" smooth="yes"/>
      <point x="389" y="62"/>
      <point x="214" y="278"/>
      <point x="214" y="720" type="curve" smooth="yes"/>
      <point x="214" y="1164"/>
      <point x="389" y="1384"/>
      <point x="710" y="1384" type="curve" smooth="yes"/>
      <point x="1030" y="1384"/>
      <point x="1196" y="1166"/>
      <point x="1196" y="720" type="curve" smooth="yes"/>
      <point x="1196" y="276"/>
      <point x="1034" y="62"/>
    </contour>
  </outline>
</glyph>
<glyph name="tbar" format="2">
  <advance width="726"/>
  <unicode hex="0167"/>
  <anchor x="521" y="0" name="bottom"/>
  <anchor x="649" y="1446" name="caron"/>
  <anchor x="463" y="620" name="center"/>
  <outline>
    <contour>
      <point x="602" y="614" type="line"/>
      <point x="155" y="614" type="line"/>
      <point x="155" y="546" type="line"/>
      <point x="602" y="546" type="line"/>
    </contour>
    <component base="t" xOffset="58"/>
  </outline>
</glyph>
<glyph name="commaturnedmod" format="2">
  <advance width="366"/>
  <unicode hex="02BB"/>
  <outline>
    <contour>
      <point x="266" y="1362" type="line"/>
      <point x="266" y="1416" type="line"/>
      <point x="198" y="1432"/>
      <point x="100" y="1338"/>
      <point x="100" y="1206" type="curve"/>
      <point x="100" y="1068" type="line"/>
      <point x="266" y="1068" type="line"/>
      <point x="266" y="1224" type="line"/>
      <point x="172" y="1224" type="line"/>
      <point x="172" y="1232" type="line"/>
      <point x="172" y="1292"/>
      <point x="210" y="1362"/>
      <point x="256" y="1362" type="curve"/>
    </contour>
  </outline>
</glyph>
<glyph name="acutecomb" format="2">
  <unicode hex="0301"/>
  <anchor x="53" y="1034" name="_top"/>
  <outline>
    <contour>
      <point x="216" y="1446" type="line"/>
      <point x="10" y="1155" type="line"/>
      <point x="85" y="1155" type="line"/>
      <point x="336" y="1446" type="line"/>
    </contour>
  </outline>
</glyph>
<glyph name="circumflexcomb" format="2">
  <unicode hex="0302"/>
  <anchor x="270" y="1034" name="_top"/>
  <outline>
    <contour>
      <point x="418" y="1155" type="line"/>
      <point x="538" y="1155" type="line"/>
      <point x="304" y="1345" type="line"/>
      <point x="240" y="1345" type="line"/>
      <point x="2" y="1155" type="line"/>
      <point x="114" y="1155" type="line"/>
      <point x="270" y="1275" type="line"/>
    </contour>
  </outline>
</glyph>
<glyph name="brevecomb" format="2">
  <unicode hex="0306"/>
  <guideline x="355" y="1253" angle="90"/>
  <anchor x="266" y="1038" name="_top"/>
  <outline>
    <contour>
      <point x="521" y="1333" type="curve"/>
      <point x="438" y="1333" type="line"/>
      <point x="413" y="1272"/>
      <point x="345" y="1228"/>
      <point x="263" y="1228" type="curve" smooth="yes"/>
      <point x="180" y="1228"/>
      <point x="118" y="1272"/>
      <point x="94" y="1333" type="curve"/>
      <point x="10" y="1333" type="line"/>
      <point x="36" y="1220"/>
      <point x="136" y="1155"/>
      <point x="263" y="1155" type="curve" smooth="yes"/>
      <point x="401" y="1155"/>
      <point x="496" y="1227"/>
    </contour>
  </outline>
</glyph>
<glyph name="hookabovecomb" format="2">
  <unicode hex="0309"/>
  <guideline x="355" y="720" angle="302.6992"/>
  <guideline x="271" y="660" angle="302.6992"/>
  <guideline x="325" y="699" angle="302.6992"/>
  <guideline x="246" y="697" angle="32.7"/>
  <guideline x="269" y="663" angle="32.7"/>
  <guideline x="289" y="632" angle="32.7"/>
  <anchor x="626" y="1060" name="_top"/>
  <anchor x="542" y="1168" name="_topviet"/>
  <outline>
    <contour>
      <point x="492" y="1440" type="line"/>
      <point x="596" y="1506"/>
      <point x="700" y="1494"/>
      <point x="750" y="1420" type="curve" smooth="yes"/>
      <point x="810" y="1332"/>
      <point x="764" y="1240"/>
      <point x="662" y="1176" type="curve"/>
      <point x="622" y="1236" type="line"/>
      <point x="684" y="1276"/>
      <point x="718" y="1334"/>
      <point x="690" y="1378" type="curve" smooth="yes"/>
      <point x="660" y="1426"/>
      <point x="592" y="1418"/>
      <point x="532" y="1378" type="curve"/>
    </contour>
  </outline>
</glyph>
<glyph name="dblgravecomb" format="2">
  <unicode hex="030F"/>
  <anchor x="421" y="1034" name="_top"/>
  <outline>
    <contour>
      <point x="370" y="1446" type="line"/>
      <point x="250" y="1446" type="line"/>
      <point x="486" y="1155" type="line"/>
      <point x="561" y="1155" type="line"/>
    </contour>
    <contour>
      <point x="130" y="1446" type="line"/>
      <point x="10" y="1446" type="line"/>
      <point x="281" y="1155" type="line"/>
      <point x="356" y="1155" type="line"/>
    </contour>
  </outline>
</glyph>
<glyph name="quotesinglbase" format="2">
  <advance width="412"/>
  <unicode hex="201A"/>
  <outline>
    <contour>
      <point x="80" y="-222" type="line"/>
      <point x="144" y="-222" type="line"/>
      <point x="282" y="24" type="line"/>
      <point x="282" y="160" type="line"/>
      <point x="116" y="160" type="line"/>
      <point x="116" y="0" type="line"/>
      <point x="186" y="0" type="line"/>
    </contour>
  </outline>
</glyph>
<glyph name="bullet" format="2">
  <advance width="560"/>
  <unicode hex="2022"/>
  <outline>
    <contour>
      <point x="280" y="594" type="curve" smooth="yes"/>
      <point x="358" y="594"/>
      <point x="420" y="658"/>
      <point x="420" y="736" type="curve" smooth="yes"/>
      <point x="420" y="814"/>
      <point x="358" y="876"/>
      <point x="280" y="876" type="curve" smooth="yes"/>
      <point x="202" y="876"/>
      <point x="140" y="814"/>
      <point x="140" y="736" type="curve" smooth="yes"/>
      <point x="140" y="658"/>
      <point x="202" y="594"/>
    </contour>
  </outline>
</glyph>
<glyph name="fraction" format="2">
  <advance width="454"/>
  <unicode hex="2044"/>
  <outline>
    <contour>
      <point x="757" y="1462" type="line"/>
      <point x="684" y="1462" type="line"/>
      <point x="-293" y="-8" type="line"/>
      <point x="-215" y="-8" type="line"/>
    </contour>
  </outline>
</glyph>
<glyph name="colonsign" format="2">
  <advance width="1318"/>
  <unicode hex="20A1"/>
  <anchor x="700" y="0" name="bottom"/>
  <anchor x="686" y="1446" name="top"/>
  <outline>
    <contour>
      <point x="724" y="1560" type="line"/>
      <point x="404" y="-122" type="line"/>
      <point x="478" y="-122" type="line"/>
      <point x="798" y="1560" type="line"/>
    </contour>
    <contour>
      <point x="928" y="1560" type="line"/>
      <point x="608" y="-122" type="line"/>
      <point x="682" y="-122" type="line"/>
      <point x="1002" y="1560" type="line"/>
    </contour>
    <component base="C"/>
  </outline>
</glyph>
<glyph name="naira" format="2">
  <advance width="1378"/>
  <unicode hex="20A6"/>
  <anchor x="676" y="0" name="bottom"/>
  <anchor x="724" y="1446" name="top"/>
  <outline>
    <contour>
      <point x="1368" y="942" type="line"/>
      <point x="10" y="940" type="line"/>
      <point x="10" y="866" type="line"/>
      <point x="1368" y="868" type="line"/>
    </contour>
    <contour>
      <point x="1368" y="630" type="line"/>
      <point x="10" y="628" type="line"/>
      <point x="10" y="554" type="line"/>
      <point x="1368" y="556" type="line"/>
    </contour>
    <component base="N" xOffset="-2"/>
  </outline>
</glyph>
<glyph name="liraTurkish" format="2">
  <advance width="958"/>
  <unicode hex="20BA"/>
  <outline>
    <contour>
      <point x="416" y="0" type="line" smooth="yes"/>
      <point x="654" y="0"/>
      <point x="850" y="142"/>
      <point x="938" y="424" type="curve"/>
      <point x="854" y="446" type="line"/>
      <point x="756" y="180"/>
      <point x="618" y="78"/>
      <point x="414" y="78" type="curve" smooth="yes"/>
      <point x="292" y="78" type="line"/>
      <point x="292" y="1446" type="line"/>
      <point x="202" y="1446" type="line"/>
      <point x="202" y="0" type="line"/>
    </contour>
    <contour>
      <point x="590" y="1014" type="line"/>
      <point x="30" y="810" type="line"/>
      <point x="58" y="726" type="line"/>
      <point x="622" y="930" type="line"/>
    </contour>
    <contour>
      <point x="590" y="688" type="line"/>
      <point x="30" y="484" type="line"/>
      <point x="58" y="400" type="line"/>
      <point x="622" y="604" type="line"/>
    </contour>
  </outline>
</glyph>
<glyph name="summation" format="2">
  <advance width="970"/>
  <unicode hex="2211"/>
  <outline>
    <contour>
      <point x="930" y="0" type="line"/>
      <point x="930" y="78" type="line"/>
      <point x="162" y="78" type="line"/>
      <point x="594" y="726" type="line"/>
      <point x="192" y="1368" type="line"/>
      <point x="894" y="1368" type="line"/>
      <point x="894" y="1446" type="line"/>
      <point x="80" y="1446" type="line"/>
      <point x="80" y="1376" type="line"/>
      <point x="492" y="724" type="line"/>
      <point x="50" y="66" type="line"/>
      <point x="50" y="0" type="line"/>
    </contour>
  </outline>
</glyph>
<glyph name="radical" format="2">
  <advance width="1160"/>
  <unicode hex="221A"/>
  <outline>
    <contour>
      <point x="1170" y="1650" type="line"/>
      <point x="1090" y="1650" type="line"/>
      <point x="600" y="-210" type="line"/>
      <point x="264" y="748" type="line"/>
      <point x="30" y="658" type="line"/>
      <point x="56" y="586" type="line"/>
      <point x="200" y="644" type="line"/>
      <point x="558" y="-322" type="line"/>
      <point x="654" y="-322" type="line"/>
    </contour>
  </outline>
</glyph>
<glyph name="notequal" format="2">
  <advance width="1042"/>
  <unicode hex="2260"/>
  <outline>
    <contour>
      <point x="788" y="1224" type="line"/>
      <point x="720" y="1224" type="line"/>
      <point x="244" y="168" type="line"/>
      <point x="316" y="168" type="line"/>
    </contour>
    <component base="equal"/>
  </outline>
</glyph>
<glyph name="lozenge" format="2">
  <advance width="842"/>
  <unicode hex="25CA"/>
  <outline>
    <contour>
      <point x="464" y="0" type="line"/>
      <point x="772" y="726" type="line"/>
      <point x="474" y="1446" type="line"/>
      <point x="378" y="1446" type="line"/>
      <point x="70" y="722" type="line"/>
      <point x="366" y="0" type="line"/>
    </contour>
    <contour>
      <point x="422" y="1366" type="line"/>
      <point x="674" y="722" type="line"/>
      <point x="422" y="82" type="line"/>
      <point x="168" y="732" type="line"/>
    </contour>
  </outline>
</glyph>
<glyph name="_emdash" format="2">
  <advance width="2170"/>
  <outline>
    <contour>
      <point x="1789" y="546" type="line"/>
      <point x="381" y="544" type="line"/>
      <point x="381" y="466" type="line"/>
      <point x="1789" y="468" type="line"/>
    </contour>
  </outline>
</glyph>
<glyph name=".notdef" format="2">
  <advance width="1430"/>
  <outline>
    <contour>
      <point x="1210" y="-266" type="curve"/>
      <point x="1210" y="1610" type="line" smooth="yes"/>
      <point x="1210" y="1636"/>
      <point x="1198" y="1652"/>
      <point x="1176" y="1652" type="curve" smooth="yes"/>
      <point x="258" y="1652" type="line" smooth="yes"/>
      <point x="236" y="1652"/>
      <point x="220" y="1636"/>
      <point x="220" y="1606" type="curve" smooth="yes"/>
      <point x="220" y="-274" type="line" smooth="yes"/>
      <point x="220" y="-306"/>
      <point x="232" y="-322"/>
      <point x="274" y="-322" type="curve" smooth="yes"/>
      <point x="1146" y="-322" type="line" smooth="yes"/>
      <point x="1192" y="-322"/>
      <point x="1210" y="-306"/>
    </contour>
    <contour>
      <point x="1110" y="-178" type="line"/>
      <point x="1110" y="-210"/>
      <point x="1092" y="-224"/>
      <point x="1054" y="-224" type="curve" smooth="yes"/>
      <point x="366" y="-224" type="line" smooth="yes"/>
      <point x="332" y="-224"/>
      <point x="322" y="-210"/>
      <point x="322" y="-184" type="curve" smooth="yes"/>
      <point x="322" y="1518" type="line" smooth="yes"/>
      <point x="322" y="1540"/>
      <point x="336" y="1554"/>
      <point x="352" y="1554" type="curve" smooth="yes"/>
      <point x="1080" y="1554" type="line" smooth="yes"/>
      <point x="1098" y="1554"/>
      <point x="1110" y="1540"/>
      <point x="1110" y="1520" type="curve" smooth="yes"/>
    </contour>
    <contour>
      <point x="1054" y="-268" type="line"/>
      <point x="1172" y="-258" type="line"/>
      <point x="362" y="1624" type="line"/>
      <point x="262" y="1572" type="line"/>
    </contour>
  </outline>
</glyph>
<glyph name="acutecomb.viet" format="2">
  <anchor x="48" y="1034" name="_top"/>
  <outline>
    <contour>
      <point x="150" y="1379" type="line"/>
      <point x="10" y="1155" type="line"/>
      <point x="95" y="1155" type="line"/>
      <point x="271" y="1379" type="line"/>
    </contour>
  </outline>
</glyph>
<glyph name="colon_f_l_a_g_colon.liga" format="2">
  <advance width="2294"/>
  <outline>
    <contour>
      <point x="196" y="1404" type="line"/>
      <point x="2096" y="1404" type="line"/>
      <point x="2096" y="118" type="line"/>
      <point x="196" y="118" type="line"/>
    </contour>
    <contour>
      <point x="80" y="1522" type="line"/>
      <point x="80" y="2" type="line"/>
      <point x="2214" y="2" type="line"/>
      <point x="2214" y="1522" type="line"/>
    </contour>
    <contour>
      <point x="100" y="352" type="line"/>
      <point x="100" y="234" type="line"/>
      <point x="2184" y="234" type="line"/>
      <point x="2184" y="352" type="line"/>
    </contour>
    <contour>
      <point x="100" y="586" type="line"/>
      <point x="100" y="468" type="line"/>
      <point x="2184" y="468" type="line"/>
      <point x="2184" y="586" type="line"/>
    </contour>
    <contour>
      <point x="1016" y="820" type="line"/>
      <point x="1016" y="702" type="line"/>
      <point x="2184" y="702" type="line"/>
      <point x="2184" y="820" type="line"/>
    </contour>
    <contour>
      <point x="1016" y="1054" type="line"/>
      <point x="1016" y="936" type="line"/>
      <point x="2184" y="936" type="line"/>
      <point x="2184" y="1054" type="line"/>
    </contour>
    <contour>
      <point x="1016" y="1288" type="line"/>
      <point x="1016" y="1170" type="line"/>
      <point x="2184" y="1170" type="line"/>
      <point x="2184" y="1288" type="line"/>
    </contour>
    <contour>
      <point x="314" y="1288" type="line"/>
      <point x="314" y="1170" type="line"/>
      <point x="430" y="1170" type="line"/>
      <point x="430" y="1288" type="line"/>
    </contour>
    <contour>
      <point x="548" y="1170" type="line"/>
      <point x="548" y="1054" type="line"/>
      <point x="664" y="1054" type="line"/>
      <point x="664" y="1170" type="line"/>
    </contour>
    <contour>
      <point x="782" y="1288" type="line"/>
      <point x="782" y="1170" type="line"/>
      <point x="898" y="1170" type="line"/>
      <point x="898" y="1288" type="line"/>
    </contour>
    <contour>
      <point x="548" y="1170" type="line"/>
      <point x="548" y="1054" type="line"/>
      <point x="664" y="1054" type="line"/>
      <point x="664" y="1170" type="line"/>
    </contour>
    <contour>
      <point x="314" y="1054" type="line"/>
      <point x="314" y="936" type="line"/>
      <point x="430" y="936" type="line"/>
      <point x="430" y="1054" type="line"/>
    </contour>
    <contour>
      <point x="548" y="936" type="line"/>
      <point x="548" y="820" type="line"/>
      <point x="664" y="820" type="line"/>
      <point x="664" y="936" type="line"/>
    </contour>
    <contour>
      <point x="782" y="1054" type="line"/>
      <point x="782" y="936" type="line"/>
      <point x="898" y="936" type="line"/>
      <point x="898" y="1054" type="line"/>
    </contour>
    <contour>
      <point x="548" y="936" type="line"/>
      <point x="548" y="820" type="line"/>
      <point x="664" y="820" type="line"/>
      <point x="664" y="936" type="line"/>
    </contour>
    <contour>
      <point x="314" y="820" type="line"/>
      <point x="314" y="702" type="line"/>
      <point x="430" y="702" type="line"/>
      <point x="430" y="820" type="line"/>
    </contour>
    <contour>
      <point x="782" y="820" type="line"/>
      <point x="782" y="702" type="line"/>
      <point x="898" y="702" type="line"/>
      <point x="898" y="820" type="line"/>
    </contour>
  </outline>
</glyph>
<glyph name="colon_one_eight_F_colon.liga" format="2">
  <advance width="1520"/>
  <outline>
    <contour>
      <point x="736" y="742" type="curve" smooth="yes"/>
      <point x="678" y="742"/>
      <point x="632" y="698"/>
      <point x="632" y="640" type="curve" smooth="yes"/>
      <point x="632" y="584"/>
      <point x="678" y="538"/>
      <point x="736" y="538" type="curve" smooth="yes"/>
      <point x="792" y="538"/>
      <point x="836" y="584"/>
      <point x="836" y="640" type="curve" smooth="yes"/>
      <point x="836" y="698"/>
      <point x="792" y="742"/>
    </contour>
    <contour>
      <point x="24" y="1522" type="line" smooth="yes"/>
      <point x="8" y="1522"/>
      <point x="0" y="1514"/>
      <point x="0" y="1498" type="curve" smooth="yes"/>
      <point x="0" y="26" type="line" smooth="yes"/>
      <point x="0" y="8"/>
      <point x="8" y="0"/>
      <point x="24" y="0" type="curve" smooth="yes"/>
      <point x="1498" y="0" type="line" smooth="yes"/>
      <point x="1512" y="0"/>
      <point x="1520" y="10"/>
      <point x="1520" y="26" type="curve" smooth="yes"/>
      <point x="1520" y="1498" type="line" smooth="yes"/>
      <point x="1520" y="1514"/>
      <point x="1514" y="1522"/>
      <point x="1498" y="1522" type="curve" smooth="yes"/>
    </contour>
    <contour>
      <point x="478" y="486" type="line" smooth="yes"/>
      <point x="478" y="480"/>
      <point x="476" y="478"/>
      <point x="470" y="478" type="curve" smooth="yes"/>
      <point x="416" y="478" type="line" smooth="yes"/>
      <point x="410" y="478"/>
      <point x="408" y="480"/>
      <point x="408" y="486" type="curve" smooth="yes"/>
      <point x="408" y="970" type="line"/>
      <point x="336" y="970" type="line" smooth="yes"/>
      <point x="330" y="970"/>
      <point x="328" y="972"/>
      <point x="328" y="978" type="curve" smooth="yes"/>
      <point x="328" y="1030" type="line" smooth="yes"/>
      <point x="328" y="1036"/>
      <point x="330" y="1040"/>
      <point x="336" y="1040" type="curve" smooth="yes"/>
      <point x="470" y="1040" type="line" smooth="yes"/>
      <point x="476" y="1040"/>
      <point x="478" y="1036"/>
      <point x="478" y="1030" type="curve" smooth="yes"/>
    </contour>
    <contour>
      <point x="736" y="468" type="curve" smooth="yes"/>
      <point x="638" y="468"/>
      <point x="562" y="546"/>
      <point x="562" y="640" type="curve" smooth="yes"/>
      <point x="562" y="698"/>
      <point x="588" y="748"/>
      <point x="636" y="780" type="curve"/>
      <point x="602" y="814"/>
      <point x="582" y="852"/>
      <point x="582" y="896" type="curve" smooth="yes"/>
      <point x="582" y="978"/>
      <point x="648" y="1046"/>
      <point x="736" y="1046" type="curve" smooth="yes"/>
      <point x="816" y="1046"/>
      <point x="886" y="978"/>
      <point x="886" y="896" type="curve" smooth="yes"/>
      <point x="886" y="850"/>
      <point x="868" y="814"/>
      <point x="832" y="780" type="curve"/>
      <point x="880" y="748"/>
      <point x="906" y="698"/>
      <point x="906" y="640" type="curve" smooth="yes"/>
      <point x="906" y="546"/>
      <point x="828" y="468"/>
    </contour>
    <contour>
      <point x="1216" y="978" type="line" smooth="yes"/>
      <point x="1216" y="972"/>
      <point x="1214" y="970"/>
      <point x="1208" y="970" type="curve" smooth="yes"/>
      <point x="1062" y="970" type="line"/>
      <point x="1062" y="802" type="line"/>
      <point x="1184" y="802" type="line" smooth="yes"/>
      <point x="1190" y="802"/>
      <point x="1192" y="798"/>
      <point x="1192" y="792" type="curve" smooth="yes"/>
      <point x="1192" y="742" type="line" smooth="yes"/>
      <point x="1192" y="736"/>
      <point x="1190" y="734"/>
      <point x="1184" y="734" type="curve" smooth="yes"/>
      <point x="1062" y="734" type="line"/>
      <point x="1062" y="486" type="line" smooth="yes"/>
      <point x="1062" y="480"/>
      <point x="1058" y="478"/>
      <point x="1050" y="478" type="curve" smooth="yes"/>
      <point x="998" y="478" type="line" smooth="yes"/>
      <point x="992" y="478"/>
      <point x="990" y="480"/>
      <point x="990" y="486" type="curve" smooth="yes"/>
      <point x="990" y="1030" type="line" smooth="yes"/>
      <point x="990" y="1036"/>
      <point x="992" y="1040"/>
      <point x="998" y="1040" type="curve" smooth="yes"/>
      <point x="1208" y="1040" type="line" smooth="yes"/>
      <point x="1214" y="1040"/>
      <point x="1216" y="1036"/>
      <point x="1216" y="1030" type="curve" smooth="yes"/>
    </contour>
    <contour>
      <point x="736" y="816" type="curve" smooth="yes"/>
      <point x="780" y="816"/>
      <point x="816" y="848"/>
      <point x="816" y="896" type="curve" smooth="yes"/>
      <point x="816" y="942"/>
      <point x="780" y="978"/>
      <point x="736" y="978" type="curve" smooth="yes"/>
      <point x="688" y="978"/>
      <point x="652" y="942"/>
      <point x="652" y="896" type="curve" smooth="yes"/>
      <point x="652" y="848"/>
      <point x="688" y="816"/>
    </contour>
  </outline>
</glyph>
<glyph name="espaciador" format="2">
  <advance width="74"/>
  <outline>
    <contour>
      <point x="76" y="1652" type="line"/>
      <point x="-2" y="1652" type="line"/>
      <point x="-2" y="-414" type="line"/>
      <point x="76" y="-414" type="line"/>
    </contour>
  </outline>
</glyph>
<glyph name="gravecomb.viet" format="2">
  <anchor x="97" y="1034" name="_top"/>
  <outline>
    <contour>
      <point x="130" y="1379" type="line"/>
      <point x="10" y="1379" type="line"/>
      <point x="205" y="1155" type="line"/>
      <point x="290" y="1155" type="line"/>
    </contour>
  </outline>
</glyph>
<glyph name="l.ss01" format="2">
  <advance width="498"/>
  <anchor x="246" y="0" name="bottom"/>
  <anchor x="250" y="1486" name="top"/>
  <anchor x="500" y="1492" name="topright"/>
  <outline>
    <contour>
      <point x="210" y="0" type="line"/>
      <point x="288" y="0" type="line"/>
      <point x="288" y="1486" type="line"/>
      <point x="210" y="1486" type="line"/>
    </contour>
  </outline>
</glyph>
